<?xml version="1.0" encoding="utf-8"?>
<!-- Generator: Adobe Illustrator 16.0.0, SVG Export Plug-In . SVG Version: 6.00 Build 0)  -->
<!DOCTYPE svg PUBLIC "-//W3C//DTD SVG 1.1//EN" "http://www.w3.org/Graphics/SVG/1.1/DTD/svg11.dtd">
<svg version="1.1" id="Layer_1" xmlns="http://www.w3.org/2000/svg" xmlns:xlink="http://www.w3.org/1999/xlink" x="0px" y="0px"
	 width="1081px" height="400px" viewBox="0 0 1081 400" enable-background="new 0 0 1081 400" xml:space="preserve">
<circle fill="#231F20" cx="621.5" cy="173" r="3"/>
<g opacity="0.4">
	<g>
		<path fill="none" stroke="#231F20" stroke-linecap="round" stroke-linejoin="round" d="M839.91,121.497
			c1.708,0.95,2.59,1.503,2.59,1.503c-0.88-0.486-1.76-0.961-2.64-1.425"/>
		<path fill="none" stroke="#231F20" stroke-linecap="round" stroke-linejoin="round" stroke-dasharray="6.0678,6.0678" d="
			M834.438,118.85c-94.788-45.319-187.596,31.003-208.551,50.021"/>
		<path fill="none" stroke="#231F20" stroke-linecap="round" stroke-linejoin="round" d="M623.66,170.924
			c-1.42,1.332-2.16,2.076-2.16,2.076c0.984-0.231,1.96-0.451,2.928-0.658"/>
		<path fill="none" stroke="#231F20" stroke-linecap="round" stroke-linejoin="round" stroke-dasharray="6.0107,6.0107" d="
			M630.333,171.211c88.1-14.847,99.856,76.227,101.426,100.798"/>
		<path fill="none" stroke="#231F20" stroke-linecap="round" stroke-linejoin="round" d="M731.919,275.006
			C732,276.931,732,278,732,278s-0.937-0.473-2.699-1.3"/>
		<path fill="none" stroke="#231F20" stroke-linecap="round" stroke-linejoin="round" stroke-dasharray="5.8674,5.8674" d="
			M723.959,274.279c-34.232-15.046-168.93-66.05-231.363,31.651"/>
		<path fill="none" stroke="#231F20" stroke-linecap="round" stroke-linejoin="round" d="M491.038,308.424
			c-0.518,0.848-1.03,1.707-1.538,2.576c0,0-0.679-0.786-2.039-2.195"/>
		<path fill="none" stroke="#231F20" stroke-linecap="round" stroke-linejoin="round" stroke-dasharray="6.1208,6.1208" d="
			M483.104,304.512c-21.925-20.671-100.371-82.522-237.598-63.396"/>
		<path fill="none" stroke="#231F20" stroke-linecap="round" stroke-linejoin="round" d="M242.466,241.552
			c-0.986,0.146-1.975,0.295-2.966,0.448c0,0,0.738-0.736,2.161-2.075"/>
		<path fill="none" stroke="#231F20" stroke-linecap="round" stroke-linejoin="round" stroke-dasharray="6.0046,6.0046" d="
			M246.084,235.869c29.332-26.276,151.944-125.262,272.127-62.727"/>
		<path fill="none" stroke="#231F20" stroke-linecap="round" stroke-linejoin="round" d="M520.872,174.553
			c0.876,0.474,1.752,0.956,2.628,1.447c0,0-1.044-0.238-2.943-0.562"/>
		<path fill="none" stroke="#231F20" stroke-linecap="round" stroke-linejoin="round" stroke-dasharray="5.953,5.953" d="
			M514.668,174.599c-20.803-2.442-73.234-3.454-101.2,42.201"/>
		<path fill="none" stroke="#231F20" stroke-linecap="round" stroke-linejoin="round" d="M411.947,219.372
			c-0.491,0.86-0.974,1.736-1.447,2.628c0,0-0.481-0.933-1.416-2.641"/>
		<path fill="none" stroke="#231F20" stroke-linecap="round" stroke-linejoin="round" stroke-dasharray="6.0191,6.0191" d="
			M406.138,214.116C388.312,183.134,317.87,72.48,232.288,94.326"/>
		<path fill="none" stroke="#231F20" stroke-linecap="round" stroke-linejoin="round" d="M229.368,95.121
			c-0.954,0.276-1.91,0.569-2.868,0.879c0,0,1.001-0.262,2.908-0.718"/>
		<path fill="none" stroke="#231F20" stroke-linecap="round" stroke-linejoin="round" stroke-dasharray="6.0441,6.0441" d="
			M235.295,93.929c41.796-9.253,222.945-42.672,334.501,44.297"/>
		<path fill="none" stroke="#231F20" stroke-linecap="round" stroke-linejoin="round" d="M572.172,140.106
			c0.78,0.625,1.556,1.256,2.328,1.894c0.854-0.529,1.705-1.052,2.556-1.57"/>
		<path fill="none" stroke="#231F20" stroke-linecap="round" stroke-linejoin="round" stroke-dasharray="6.1265,6.1265" d="
			M582.315,137.287c127.795-74.905,230.9-29.823,254.9-17.244"/>
	</g>
</g>
<circle fill="#231F20" cx="732" cy="278" r="3"/>
<circle fill="#231F20" cx="489.5" cy="311" r="3"/>
<circle fill="#231F20" cx="239.5" cy="242" r="3"/>
<circle fill="#231F20" cx="523.5" cy="176" r="3"/>
<circle fill="#231F20" cx="410.5" cy="222" r="3"/>
<circle fill="#231F20" cx="226.5" cy="96" r="3"/>
<circle fill="#231F20" cx="574.5" cy="142" r="3"/>
<circle fill="#231F20" cx="842.5" cy="123" r="3"/>
<g opacity="0.4">
	<g>
		<path fill="none" stroke="#231F20" stroke-linecap="round" stroke-linejoin="round" d="M411.598,219.209
			c-0.384,0.922-0.75,1.853-1.098,2.791c0,0,0.935,0.511,2.602,1.486"/>
		<path fill="none" stroke="#231F20" stroke-linecap="round" stroke-linejoin="round" stroke-dasharray="6.1565,6.1565" d="
			M418.368,226.67c18.333,11.418,62.901,42.445,70.261,78.311"/>
		<path fill="none" stroke="#231F20" stroke-linecap="round" stroke-linejoin="round" d="M489.16,308.02
			c0.143,0.99,0.257,1.983,0.34,2.98c0,0,0.507-0.93,1.401-2.648"/>
		<path fill="none" stroke="#231F20" stroke-linecap="round" stroke-linejoin="round" stroke-dasharray="5.9073,5.9073" d="
			M493.579,303.089c10.742-21.555,38.502-82.305,31.304-121.294"/>
		<path fill="none" stroke="#231F20" stroke-linecap="round" stroke-linejoin="round" d="M524.273,178.897
			c-0.233-0.982-0.491-1.948-0.773-2.897c0,0,1.034,0.028,2.991,0.169"/>
		<path fill="none" stroke="#231F20" stroke-linecap="round" stroke-linejoin="round" stroke-dasharray="5.9205,5.9205" d="
			M532.384,176.708c27.62,3.003,114.966,18.495,195.376,97.083"/>
		<path fill="none" stroke="#231F20" stroke-linecap="round" stroke-linejoin="round" d="M729.879,275.878
			c0.708,0.702,1.415,1.41,2.121,2.122c0,0-0.321-1.004-1.007-2.821"/>
		<path fill="none" stroke="#231F20" stroke-linecap="round" stroke-linejoin="round" stroke-dasharray="6.0354,6.0354" d="
			M728.73,269.589c-9.283-21.592-39.622-78.541-107.23-96.589c0,0-184.4-105.932-389.031-77.856"/>
		<path fill="none" stroke="#231F20" stroke-linecap="round" stroke-linejoin="round" d="M229.47,95.564
			c-0.989,0.142-1.979,0.287-2.97,0.436c0,0,0.737,0.764,1.975,2.252"/>
		<path fill="none" stroke="#231F20" stroke-linecap="round" stroke-linejoin="round" stroke-dasharray="5.9693,5.9693" d="
			M232.125,102.971c12.516,17.284,39.329,65.678,9.849,133.57"/>
		<path fill="none" stroke="#231F20" stroke-linecap="round" stroke-linejoin="round" d="M240.759,239.277
			c-0.41,0.904-0.83,1.812-1.259,2.723c0,0,0.866-0.567,2.522-1.618"/>
		<path fill="none" stroke="#231F20" stroke-linecap="round" stroke-linejoin="round" stroke-dasharray="5.944,5.944" d="
			M247.057,237.232C284.717,213.968,455.052,114.571,574.5,142c0,0,184.115-54.376,262.572-21.502"/>
		<path fill="none" stroke="#231F20" stroke-linecap="round" stroke-linejoin="round" d="M839.799,121.696
			c0.917,0.421,1.817,0.856,2.701,1.304c0,0-1.029-0.075-2.989-0.199"/>
		<path fill="none" stroke="#231F20" stroke-linecap="round" stroke-linejoin="round" stroke-dasharray="5.932,5.932" d="
			M833.594,122.449c-57.008-3.192-369.973-15.558-420.8,94.041"/>
	</g>
</g>
</svg>
